<?xml version="1.0" encoding="utf-8"?>
<!-- Generator: Adobe Illustrator 23.0.3, SVG Export Plug-In . SVG Version: 6.00 Build 0)  -->
<svg version="1.1" id="Layer_1" xmlns="http://www.w3.org/2000/svg" xmlns:xlink="http://www.w3.org/1999/xlink" x="0px" y="0px"
	 viewBox="0 0 459.7 459.7" style="enable-background:new 0 0 459.7 459.7;" xml:space="preserve">
<style type="text/css">
	.st0{fill:#FFFFFF;}
</style>
<g id="XMLID_2_">
	<g>
		<g>
			<path class="st0" d="M359.6,297c-18.2,25-47.7,41.3-80.9,41.3H232c-16.1,0-29.8-10.2-35-24.5c-6.4-1.9-12.7-4.4-18.8-7.4
				c-13-6.5-24.8-15.2-35.2-26C75.7,295.1,25.3,355.1,25.3,426.9v9.4c0,12.9,10.5,23.4,23.4,23.4H411c12.9,0,23.4-10.5,23.4-23.4
				v-9.4C434.4,371.5,404.3,323,359.6,297z"/>
			<path class="st0" d="M118.2,232.2c10,0,18.8-5.6,23.3-13.8c0.1,0.3,0.2,0.6,0.4,1c0,0.1,0.1,0.2,0.1,0.3
				c10.6,28,31.3,51.4,58.5,61.6c6.6-10.5,18.2-17.4,31.5-17.4h46.6c4.6,0,9-1.3,12.8-3.4c6.4-3.6,12.1-12.6,15.1-17.4
				c4.7-7.7,8.4-15.8,11.7-24.6c1.8,3.3,4.3,6.2,7.4,8.5v11.4c0,25.8-21,46.8-46.8,46.8H232c-8.8,0-16,7.1-16,16c0,8.8,7.1,16,16,16
				h46.6c43.4,0,78.8-35.3,78.8-78.8v-11.4c6.5-4.9,10.6-12.6,10.6-21.3v-48.1V139c0-8.9-4.4-16.7-11-21.6
				C351.8,51.8,296.8,0,229.8,0c-66.9,0-122,51.8-127.2,117.4c-6.7,4.8-11,12.7-11,21.6v66.6C91.6,220.3,103.6,232.2,118.2,232.2z
				 M229.8,31.9c49.6,0,90.4,37.9,95.2,86.2c-3.1,2.5-5.7,5.6-7.5,9.2c-15.1-39.3-48.7-66.6-87.7-66.6c-39.9,0-73,28.3-87.7,66.5
				c0,0.1,0,0.1-0.1,0.2c-1.8-3.6-4.3-6.8-7.5-9.2C139.4,69.8,180.3,31.9,229.8,31.9z"/>
		</g>
	</g>
</g>
</svg>
